<?xml version="1.0" standalone="no"?>
<!DOCTYPE svg PUBLIC "-//W3C//DTD SVG 20010904//EN"
 "http://www.w3.org/TR/2001/REC-SVG-20010904/DTD/svg10.dtd">
<svg version="1.0" xmlns="http://www.w3.org/2000/svg"
 width="930.000000pt" height="930.000000pt" viewBox="0 0 930.000000 930.000000"
 preserveAspectRatio="xMidYMid meet">
<metadata>
Created by potrace 1.11, written by Peter Selinger 2001-2013
</metadata>
<g transform="translate(0.000000,930.000000) scale(0.100000,-0.100000)"
fill="#000000" stroke="none">
<path d="M4415 8581 c6 -11 3 -13 -13 -9 -13 4 -22 1 -22 -5 0 -7 -5 -5 -10 3
-5 8 -10 10 -10 4 0 -7 -7 -15 -16 -18 -10 -4 -13 -2 -8 7 6 9 4 9 -8 -1 -9
-7 -19 -9 -22 -4 -6 10 -36 10 -52 0 -5 -4 -16 -3 -24 2 -8 5 -22 5 -32 -1
-13 -7 -18 -6 -18 3 0 9 -3 9 -8 2 -8 -11 -41 -27 -57 -27 -5 0 -18 3 -29 8
-12 5 -21 3 -27 -6 -7 -11 -9 -11 -9 -1 0 7 -5 10 -10 7 -6 -4 -8 -10 -6 -14
3 -4 -9 -8 -25 -9 -20 -2 -28 1 -24 9 6 8 2 8 -12 0 -14 -7 -24 -7 -33 2 -10
9 -11 9 -6 0 3 -6 2 -14 -4 -18 -5 -3 -10 0 -10 7 0 10 -3 9 -9 -2 -6 -8 -7
-19 -5 -25 3 -5 -2 -1 -11 10 -13 14 -19 16 -22 7 -4 -9 -8 -10 -18 -2 -9 8
-17 7 -28 -5 -18 -18 -42 -20 -31 -3 5 7 3 8 -7 2 -14 -9 -19 -10 -40 -13 -5
0 -7 -5 -4 -11 4 -7 -2 -7 -18 -1 -19 8 -29 5 -46 -10 -11 -11 -21 -16 -21
-11 0 5 -7 9 -15 9 -8 0 -15 -4 -15 -9 0 -5 -4 -6 -10 -3 -5 3 -10 1 -10 -5 0
-6 -10 -8 -25 -4 -18 4 -32 1 -47 -12 -12 -11 -18 -13 -14 -6 11 18 -5 15 -21
-5 -8 -10 -12 -12 -8 -6 4 9 1 11 -9 7 -9 -3 -13 -11 -10 -16 4 -6 -3 -5 -15
1 -16 9 -21 9 -21 0 0 -6 -7 -9 -15 -5 -8 3 -21 -1 -29 -9 -11 -11 -16 -12
-19 -2 -4 9 -6 9 -6 0 -1 -7 -8 -10 -18 -6 -12 5 -14 3 -8 -7 6 -10 2 -12 -18
-8 -15 3 -24 1 -21 -3 3 -5 -1 -10 -8 -11 -7 0 -17 -2 -23 -3 -5 -2 -16 -3
-23 -4 -7 0 -11 -5 -8 -10 3 -5 -9 -8 -28 -7 -24 1 -32 -2 -25 -10 6 -8 1 -11
-19 -10 -15 1 -37 -6 -50 -16 -13 -9 -30 -14 -39 -11 -11 4 -14 2 -9 -5 5 -8
-1 -12 -17 -12 -14 0 -30 -6 -36 -14 -7 -8 -23 -17 -36 -20 -14 -4 -25 -12
-25 -19 0 -8 -4 -7 -10 3 -8 13 -11 11 -16 -7 -7 -25 -19 -30 -28 -10 -5 9 -7
9 -12 -1 -3 -7 -15 -17 -27 -24 -21 -11 -21 -10 -7 7 9 12 1 8 -21 -8 -20 -15
-39 -24 -42 -20 -4 3 -7 1 -7 -5 0 -7 -6 -12 -12 -12 -7 0 -26 -11 -42 -25
-22 -19 -32 -22 -38 -13 -5 9 -8 8 -8 -5 0 -10 -4 -16 -9 -12 -6 3 -14 -2 -19
-11 -5 -9 -20 -17 -35 -17 -16 -1 -22 -6 -17 -12 6 -7 1 -11 -12 -12 -12 -1
-25 -7 -29 -14 -4 -7 -14 -9 -24 -6 -9 4 -14 3 -11 -2 3 -4 -4 -17 -17 -27
-21 -19 -21 -19 -7 1 15 19 15 19 -12 0 -15 -11 -28 -26 -28 -32 0 -7 -5 -13
-11 -13 -5 0 -7 5 -4 11 4 6 -2 5 -13 -2 -12 -7 -18 -17 -16 -21 5 -7 -10 -11
-21 -5 -2 1 -11 -7 -19 -18 -12 -15 -16 -16 -16 -5 0 10 -5 7 -13 -8 -7 -12
-16 -19 -20 -16 -4 4 -7 3 -7 -2 0 -5 -16 -18 -35 -28 -19 -11 -35 -23 -35
-28 0 -5 -5 -6 -12 -2 -6 4 -8 3 -5 -3 3 -5 -3 -17 -14 -26 -10 -9 -19 -14
-19 -10 0 4 -7 -2 -16 -13 -8 -10 -12 -12 -8 -4 4 8 -9 -2 -29 -23 -20 -21
-37 -44 -37 -50 0 -8 -4 -7 -9 2 -7 11 -16 7 -42 -20 -18 -19 -37 -33 -41 -31
-4 1 -7 -4 -6 -10 2 -8 -5 -12 -16 -10 -10 2 -16 0 -13 -5 5 -9 -218 -234
-226 -227 -3 3 -8 -3 -11 -14 -4 -11 -27 -37 -51 -57 -24 -21 -42 -42 -39 -46
3 -5 -2 -6 -10 -3 -11 4 -14 0 -11 -14 2 -14 -3 -22 -17 -25 -11 -3 -17 -10
-13 -16 3 -6 -1 -11 -9 -11 -9 0 -16 -7 -16 -16 0 -8 -3 -13 -8 -11 -11 7 -29
-17 -26 -36 1 -9 -1 -16 -4 -16 -20 3 -32 -2 -27 -11 3 -5 -1 -10 -10 -10 -9
0 -13 -4 -10 -10 3 -5 1 -10 -4 -10 -6 0 -10 -6 -9 -12 2 -7 -2 -12 -9 -11 -8
2 -10 -4 -6 -14 5 -13 2 -15 -11 -10 -9 4 -15 3 -11 -2 3 -5 -2 -16 -10 -24
-8 -9 -15 -19 -15 -24 0 -5 -9 -15 -19 -23 -11 -7 -18 -17 -15 -22 3 -4 0 -8
-7 -8 -7 0 -9 -3 -6 -7 4 -3 -2 -12 -13 -20 -11 -8 -20 -23 -20 -34 0 -11 -4
-18 -9 -15 -5 3 -12 -6 -15 -19 -4 -16 -11 -23 -18 -19 -7 5 -9 0 -6 -14 3
-12 3 -20 -1 -19 -3 1 -6 -1 -6 -4 0 -4 -11 -17 -25 -29 -14 -12 -20 -19 -13
-16 8 5 8 0 0 -18 -7 -13 -14 -23 -17 -21 -3 2 -10 -3 -17 -10 -10 -11 -10
-15 0 -18 9 -4 9 -6 0 -6 -7 -1 -13 -7 -13 -15 0 -8 -7 -17 -16 -20 -8 -3 -12
-10 -9 -16 3 -5 1 -10 -5 -10 -6 0 -8 -4 -5 -10 3 -5 1 -10 -5 -10 -7 0 -10
-7 -6 -15 3 -9 0 -15 -10 -15 -11 0 -15 -6 -11 -20 3 -11 1 -18 -4 -14 -5 3
-10 0 -10 -5 -1 -6 -2 -17 -3 -23 -1 -7 -7 -12 -14 -11 -6 2 -9 -4 -6 -12 4
-8 1 -15 -5 -15 -6 0 -8 -7 -5 -15 4 -8 -1 -17 -10 -21 -9 -3 -16 -10 -16 -16
0 -5 5 -6 12 -2 7 4 8 3 4 -4 -4 -7 -15 -12 -24 -12 -14 0 -14 -2 -3 -9 11 -7
10 -11 -5 -20 -11 -6 -16 -11 -12 -11 4 0 1 -12 -7 -27 -8 -15 -11 -31 -8 -36
3 -6 1 -7 -5 -3 -7 4 -12 1 -12 -9 0 -9 -5 -13 -11 -9 -8 5 -8 1 0 -14 8 -15
8 -23 -1 -28 -7 -5 -8 -3 -3 6 5 8 4 11 -3 6 -6 -4 -9 -13 -6 -20 3 -8 1 -17
-5 -21 -6 -3 -11 -17 -11 -31 0 -14 -7 -27 -15 -30 -8 -4 -15 -10 -15 -16 0
-5 6 -6 13 -3 6 4 5 1 -4 -7 -9 -7 -15 -21 -13 -30 1 -10 -4 -18 -12 -18 -8 0
-11 -6 -8 -15 4 -8 1 -15 -5 -15 -6 0 -8 -6 -5 -14 3 -8 0 -17 -6 -21 -9 -6
-9 -10 1 -16 11 -7 10 -9 -4 -9 -10 0 -15 -5 -12 -11 4 -6 -1 -17 -11 -25 -11
-9 -14 -13 -7 -10 6 4 14 2 18 -4 3 -6 -4 -14 -17 -19 -13 -6 -17 -10 -10 -10
9 -1 10 -6 3 -20 -6 -10 -7 -21 -4 -25 3 -3 1 -6 -6 -6 -8 0 -11 -6 -7 -16 3
-8 -1 -25 -9 -38 -8 -12 -12 -26 -9 -29 4 -4 1 -13 -6 -22 -7 -8 -10 -27 -7
-41 3 -16 0 -28 -9 -31 -7 -2 -11 -13 -9 -24 2 -10 0 -19 -5 -19 -4 0 -7 -8
-5 -17 1 -10 -5 -26 -13 -36 -15 -16 -14 -17 4 -11 15 5 14 2 -6 -16 -14 -12
-19 -19 -12 -15 15 8 17 -31 1 -41 -6 -3 -9 -15 -6 -25 3 -11 0 -19 -6 -19 -7
0 -5 -5 3 -10 12 -8 12 -10 1 -10 -11 0 -11 -3 -1 -16 11 -12 11 -15 -1 -12
-10 2 -14 -8 -15 -34 0 -21 4 -38 10 -38 6 -1 0 -7 -14 -15 -15 -9 -19 -14
-10 -15 12 0 13 -2 1 -9 -8 -5 -9 -11 -3 -15 12 -7 4 -69 -9 -74 -5 -2 -7 -8
-3 -13 3 -5 0 -9 -7 -9 -7 0 -5 -6 6 -14 18 -13 18 -13 -1 -24 -10 -6 -13 -12
-6 -12 6 0 12 -5 12 -11 0 -5 -6 -7 -12 -3 -10 6 -10 4 0 -8 9 -12 10 -18 2
-23 -8 -5 -8 -10 0 -20 8 -9 7 -17 -5 -28 -18 -18 -20 -31 -3 -21 7 4 8 3 4
-5 -10 -15 -13 -201 -4 -201 4 0 5 -7 2 -15 -4 -8 -11 -12 -17 -8 -6 4 -7 1
-1 -8 14 -21 14 -100 0 -92 -6 4 -2 -3 8 -15 14 -17 16 -22 5 -22 -11 0 -11
-2 1 -10 11 -7 11 -10 2 -10 -7 0 -10 -5 -7 -10 4 -6 1 -18 -7 -27 -7 -9 -8
-14 -2 -10 8 4 11 -16 10 -68 0 -48 -4 -71 -11 -68 -5 4 -1 -3 9 -15 11 -12
14 -22 8 -22 -5 0 -8 -9 -5 -20 3 -11 10 -20 17 -20 6 0 4 -5 -4 -10 -8 -5
-10 -10 -4 -10 6 0 11 -25 12 -62 1 -55 7 -113 12 -113 1 0 3 -8 5 -17 2 -10
0 -18 -4 -18 -4 0 -8 -7 -8 -15 0 -8 6 -15 13 -15 8 0 11 -9 9 -22 -3 -12 0
-27 6 -34 7 -8 7 -14 -1 -19 -5 -3 -10 -11 -10 -16 0 -6 4 -8 9 -5 5 3 11 -5
13 -19 3 -13 1 -26 -5 -28 -5 -1 -4 -9 4 -18 20 -20 22 -41 7 -50 -11 -7 -11
-9 0 -9 7 0 11 -4 7 -9 -3 -5 2 -17 11 -25 11 -12 12 -16 2 -16 -10 0 -9 -3 2
-10 11 -7 11 -10 2 -10 -8 0 -6 -8 8 -22 19 -20 19 -23 3 -40 -14 -15 -14 -18
-2 -13 9 3 16 0 17 -7 1 -7 4 -29 6 -48 2 -19 5 -37 6 -40 1 -3 2 -8 1 -12 0
-5 4 -8 10 -8 5 0 7 -4 4 -10 -3 -5 2 -10 12 -11 17 0 17 -1 0 -7 -16 -7 -16
-8 2 -22 15 -10 18 -17 9 -27 -7 -9 -7 -13 0 -13 6 0 9 -7 6 -15 -4 -8 -1 -15
5 -15 6 0 8 -7 4 -17 -5 -12 -3 -14 8 -8 11 7 11 5 -1 -10 -8 -10 -10 -16 -3
-12 6 4 14 3 18 -3 3 -5 0 -10 -7 -10 -9 0 -10 -2 -1 -8 6 -4 13 -16 15 -27 4
-26 20 -44 32 -37 5 3 6 0 2 -7 -4 -6 -12 -9 -17 -6 -5 4 -9 2 -9 -3 0 -6 7
-13 16 -16 9 -4 14 -13 10 -21 -3 -8 -1 -15 5 -15 6 0 7 -4 4 -10 -3 -5 0 -10
7 -10 11 0 10 -2 0 -9 -11 -6 -10 -10 3 -15 12 -4 15 -13 12 -27 -3 -12 0 -22
9 -26 8 -3 14 -12 14 -20 0 -8 7 -21 15 -29 8 -8 11 -22 8 -31 -5 -12 -3 -14
8 -8 11 6 11 5 2 -5 -9 -10 -7 -17 10 -31 16 -14 18 -19 7 -19 -12 0 -11 -3 3
-11 9 -6 15 -14 12 -20 -4 -5 -2 -9 3 -9 14 0 35 -57 26 -72 -6 -11 -5 -11 8
0 13 10 15 9 15 -5 0 -37 3 -45 16 -40 8 3 14 -1 14 -9 0 -7 -5 -11 -10 -7 -5
3 -4 -4 3 -16 6 -12 16 -18 22 -15 7 4 8 3 4 -4 -4 -7 -2 -12 4 -12 6 0 9 -4
5 -9 -3 -5 1 -16 9 -24 8 -8 12 -17 9 -21 -4 -3 -1 -6 6 -6 7 0 9 -5 6 -10 -3
-6 -1 -10 6 -10 7 0 9 -3 6 -7 -4 -3 0 -11 9 -17 8 -6 16 -21 17 -33 0 -12 5
-19 9 -17 4 3 8 -2 8 -10 0 -9 5 -16 10 -16 6 0 10 -6 10 -14 0 -8 7 -16 15
-20 8 -3 15 -15 15 -26 0 -12 7 -20 18 -20 14 0 15 -2 2 -10 -8 -5 -10 -10 -4
-10 7 0 14 -9 17 -21 4 -13 10 -18 18 -13 8 5 10 3 5 -5 -5 -7 0 -18 10 -26
11 -8 15 -15 11 -15 -4 0 -2 -6 5 -14 7 -8 16 -12 21 -9 4 2 7 -5 7 -17 0 -12
9 -24 23 -30 13 -5 16 -9 7 -10 -12 0 -11 -3 3 -11 9 -6 15 -14 12 -20 -4 -5
2 -9 11 -9 10 0 14 -3 11 -6 -4 -4 3 -15 15 -25 11 -11 18 -19 14 -19 -4 0 4
-11 18 -24 15 -13 26 -29 26 -35 0 -7 5 -9 10 -6 6 3 10 -1 10 -11 0 -17 36
-54 52 -54 5 0 6 -5 3 -10 -3 -6 1 -13 9 -16 9 -3 16 -12 16 -20 0 -8 5 -14
11 -14 5 0 7 -4 4 -10 -3 -5 1 -10 9 -10 9 0 16 -7 16 -16 0 -8 5 -12 10 -9 6
3 10 -2 10 -11 0 -10 3 -14 6 -11 7 7 64 -50 64 -64 0 -5 5 -9 11 -9 13 0 69
-58 69 -71 0 -5 5 -9 11 -9 15 0 39 -26 32 -34 -4 -3 1 -6 10 -6 10 0 17 -7
17 -16 0 -8 4 -12 10 -9 5 3 10 -1 10 -10 0 -9 4 -13 10 -10 5 3 10 1 10 -4 0
-6 7 -11 15 -11 8 0 15 -4 15 -10 0 -5 7 -10 15 -10 8 0 14 -3 14 -7 -3 -20 2
-34 10 -28 5 3 19 -7 30 -21 12 -16 21 -21 21 -13 1 8 7 3 15 -11 8 -14 14
-21 15 -17 0 13 30 -20 30 -33 0 -6 4 -9 9 -6 5 3 11 -1 15 -9 3 -8 12 -15 21
-15 8 0 15 -5 15 -10 0 -6 3 -9 8 -9 20 3 32 -2 32 -16 0 -8 6 -14 13 -13 6 2
11 -2 10 -9 -2 -7 4 -10 12 -7 9 4 18 -1 21 -11 4 -9 13 -14 20 -11 8 3 13 2
11 -2 -1 -4 2 -8 7 -9 5 0 13 -8 18 -17 5 -9 13 -14 19 -11 5 4 9 0 9 -8 0 -8
7 -18 16 -21 10 -4 13 -2 9 7 -4 6 1 3 9 -7 9 -11 16 -16 16 -11 0 4 8 -2 19
-13 10 -12 21 -19 25 -15 3 3 6 1 6 -6 0 -8 6 -11 16 -7 8 3 12 2 9 -4 -3 -6
-1 -10 5 -10 16 0 40 -26 32 -35 -4 -4 -2 -6 3 -5 21 5 46 0 41 -8 -2 -4 5 -9
16 -9 12 -1 24 -6 27 -10 3 -4 13 -9 21 -11 8 -2 17 -8 18 -13 2 -5 10 -9 18
-9 8 0 14 -4 14 -10 0 -5 9 -10 21 -10 11 0 17 -4 14 -10 -3 -5 3 -10 14 -10
12 0 21 -5 21 -11 0 -5 4 -8 9 -5 5 3 20 -4 35 -15 24 -19 25 -19 20 -2 -4 15
-3 14 8 -2 7 -12 20 -20 28 -20 8 1 28 -10 44 -24 16 -14 26 -20 22 -14 -5 9
-2 11 8 7 9 -3 13 -10 10 -15 -3 -5 2 -6 11 -2 10 3 20 2 24 -4 8 -13 91 -45
91 -35 0 4 4 3 8 -3 12 -17 52 -36 62 -30 6 4 13 -1 16 -9 3 -9 10 -13 15 -10
6 3 16 0 24 -6 8 -7 21 -10 29 -7 8 3 17 -1 20 -9 3 -9 10 -12 16 -9 5 3 10 0
10 -7 0 -10 2 -10 9 1 5 8 10 9 12 2 2 -6 14 -12 27 -14 13 -2 28 -10 33 -18
7 -12 9 -12 9 0 0 11 5 10 21 -5 17 -16 22 -16 29 -4 8 12 10 12 10 1 0 -8 6
-11 15 -7 9 3 18 -1 22 -9 4 -11 9 -13 18 -5 9 8 14 6 18 -5 4 -8 13 -12 22
-9 9 4 15 1 15 -7 0 -12 2 -12 9 0 7 11 12 11 31 -2 12 -8 29 -13 37 -10 8 3
20 -2 27 -12 9 -13 15 -15 20 -7 4 7 12 12 17 12 6 0 8 -4 5 -9 -3 -5 1 -12
10 -15 10 -4 13 -2 8 7 -6 9 -4 9 8 -1 13 -10 17 -10 21 0 4 10 6 10 6 1 1 -7
6 -13 12 -13 5 0 7 6 4 13 -4 6 3 1 14 -12 12 -13 21 -17 21 -10 0 7 3 9 7 6
3 -4 12 -2 20 5 11 8 12 7 7 -6 -4 -11 -1 -16 10 -16 9 0 16 -4 16 -10 0 -7
240 -10 701 -10 582 0 703 2 714 14 8 7 11 17 7 21 -4 4 0 5 8 3 8 -1 18 -7
23 -13 5 -6 12 -4 20 6 6 9 18 14 26 11 8 -2 11 0 8 5 -7 11 29 11 39 0 4 -4
15 3 25 15 11 11 19 16 19 10 0 -14 41 -6 52 10 5 9 8 7 9 -7 l0 -20 9 20 c5
11 9 14 9 7 1 -10 5 -9 17 3 10 10 24 13 36 9 13 -4 18 -2 14 4 -3 5 3 12 14
15 13 3 18 1 13 -6 -5 -9 -3 -9 8 -1 8 6 22 10 32 9 9 -2 15 1 11 6 -3 5 1 10
8 11 7 0 18 2 23 3 6 2 16 3 23 4 8 1 10 6 6 14 -5 7 0 6 11 -3 15 -12 17 -12
10 -1 -6 11 -3 13 11 9 11 -3 25 1 32 9 16 16 35 17 27 1 -4 -7 1 -4 9 6 9 11
16 16 16 10 0 -5 5 -2 10 6 8 12 10 12 10 1 0 -11 4 -11 18 2 10 10 22 14 25
11 4 -4 23 6 44 22 22 16 32 20 23 9 -14 -17 -13 -18 3 -12 10 4 21 7 23 7 3
0 2 4 -1 10 -3 6 1 7 9 4 9 -3 16 -1 16 6 0 6 5 8 10 5 6 -3 10 -1 10 5 0 7 7
10 15 7 8 -4 17 -2 19 2 3 5 19 11 36 15 18 3 29 10 25 16 -3 5 -2 10 4 10 5
0 17 3 27 7 13 5 15 3 10 -8 -5 -9 -3 -8 6 2 7 9 19 14 26 12 6 -3 12 0 12 7
0 6 5 8 10 5 6 -4 9 -1 8 7 -2 7 5 12 15 11 13 -1 17 4 12 15 -5 14 -4 15 6 4
15 -14 33 -16 25 -3 -5 8 29 25 47 22 4 -1 7 4 7 10 0 5 5 7 10 4 6 -3 10 1
10 9 0 10 6 13 15 10 8 -4 15 -1 15 5 0 6 6 11 14 11 8 0 16 6 19 14 4 9 14
12 28 9 16 -5 20 -3 14 7 -5 8 -3 11 6 8 16 -5 39 14 39 34 0 11 2 10 9 0 7
-11 14 -8 32 11 13 14 37 31 52 36 16 6 26 15 23 19 -3 5 1 9 9 9 8 0 12 -5 9
-11 -3 -6 2 -2 10 8 9 11 16 16 16 10 0 -5 6 -2 13 7 12 16 46 33 60 31 4 -1
6 3 5 10 -2 7 7 17 20 23 12 5 22 13 22 17 0 5 7 8 16 8 8 0 13 4 10 9 -3 5 1
12 10 15 10 4 13 2 8 -7 -3 -6 8 4 26 23 18 19 29 29 26 23 -5 -9 -2 -11 8 -7
9 3 14 9 13 13 -2 3 8 17 21 31 14 14 21 19 17 11 -5 -9 2 -7 18 5 15 10 25
24 22 31 -2 7 2 10 9 7 8 -3 21 4 29 16 9 12 19 20 24 18 11 -6 43 28 35 38
-4 4 1 4 11 1 11 -4 16 -3 12 3 -3 6 -1 10 5 10 6 0 9 4 5 9 -3 5 4 12 15 16
11 4 18 10 15 15 -3 5 4 11 15 15 11 3 19 9 19 13 -3 20 2 25 11 12 8 -13 10
-12 10 3 0 10 5 15 10 12 6 -3 10 -1 10 5 0 6 4 9 9 5 5 -3 12 4 16 15 3 11
13 20 21 20 8 0 13 3 12 8 -4 9 45 58 54 55 4 -2 10 6 13 17 4 11 11 17 17 14
8 -5 9 -1 5 10 -6 14 -3 17 9 12 15 -6 15 -4 3 11 -8 9 -9 14 -2 10 7 -4 14 1
18 13 4 11 11 18 16 15 5 -4 9 1 9 9 0 8 5 18 12 22 7 5 8 3 3 -7 -5 -8 5 0
21 16 16 17 28 33 27 37 -2 3 2 8 7 10 6 2 12 12 14 23 2 11 12 21 23 23 12 2
23 12 26 24 3 11 10 17 16 14 6 -4 8 2 6 14 -2 11 1 23 7 26 7 5 8 2 3 -6 -5
-9 -4 -11 3 -6 7 4 12 13 12 20 0 7 15 29 34 48 18 19 37 44 40 56 4 12 12 20
17 17 5 -4 9 1 9 9 0 9 8 16 18 16 14 0 15 2 2 10 -14 9 -7 14 13 11 5 -1 6 3
3 8 -4 5 1 17 10 25 8 9 13 16 9 16 -3 0 5 11 19 25 13 13 29 40 36 60 7 21
16 32 23 28 6 -4 8 -1 5 9 -4 8 2 21 13 28 14 11 15 16 6 22 -8 5 -3 8 13 8
20 0 22 2 10 10 -13 8 -13 10 2 10 12 0 16 6 13 20 -3 13 0 18 7 14 7 -5 9 0
6 14 -4 15 -2 19 9 15 7 -3 13 -2 12 3 -4 21 2 35 11 29 6 -3 10 3 10 14 0 12
6 21 13 21 8 0 7 4 -3 10 -13 8 -12 10 4 10 11 0 16 3 13 7 -4 3 -2 12 4 19 6
8 8 21 5 30 -6 15 -4 15 11 3 11 -9 14 -10 9 -1 -4 6 -2 12 3 12 6 0 11 5 11
11 0 5 -6 7 -12 3 -7 -4 -5 2 5 13 9 11 14 23 10 26 -3 4 -1 7 5 7 6 0 16 10
23 21 9 17 8 20 -3 13 -7 -4 -5 2 5 13 10 12 19 33 21 49 2 15 8 30 15 32 6 2
9 8 5 13 -3 5 0 9 5 9 6 0 11 9 11 21 0 11 4 17 10 14 5 -3 7 0 4 8 -3 8 1 17
9 20 9 3 13 16 12 32 -3 19 0 25 10 21 9 -3 12 0 8 9 -3 8 -10 12 -17 9 -6 -3
-4 0 5 8 9 7 14 19 11 27 -3 8 0 11 6 7 12 -7 26 29 17 44 -3 5 2 10 12 10 14
0 15 2 4 9 -9 6 -10 11 -3 15 6 4 8 14 5 23 -4 11 -3 14 6 9 8 -5 10 0 7 18
-3 14 0 26 5 26 5 0 9 7 9 15 0 8 4 15 9 15 4 0 7 11 6 25 -2 14 1 25 6 25 6
0 7 5 4 10 -3 6 0 10 7 10 9 0 9 3 -2 10 -13 8 -13 10 2 10 11 0 15 5 12 14
-3 8 -1 17 4 20 5 3 8 17 7 31 -2 14 1 25 6 25 6 0 8 4 5 9 -4 5 0 12 6 14 10
4 9 6 -1 6 -11 1 -11 4 0 18 12 14 12 16 -1 9 -9 -5 -8 -2 2 7 13 10 15 16 6
25 -9 9 -9 12 1 12 8 0 11 6 7 16 -4 10 -2 13 6 8 8 -5 9 2 5 25 -4 18 -3 30
2 26 5 -3 12 -1 15 4 4 5 1 13 -4 16 -7 5 -5 12 7 21 17 13 17 14 -1 8 -16 -6
-17 -4 -7 14 8 15 8 22 -2 25 -7 3 -4 6 6 6 10 1 16 5 12 10 -3 5 -1 12 5 16
7 4 7 13 0 26 -9 15 -7 21 5 25 13 5 13 9 3 22 -11 13 -10 15 6 9 14 -6 16 -4
9 5 -16 21 -24 50 -12 42 8 -4 9 1 4 16 -5 17 -4 21 6 15 9 -6 11 -2 7 13 -4
13 -1 22 5 22 7 0 5 5 -3 10 -9 6 -11 10 -3 10 7 0 10 7 7 15 -4 8 -11 12 -18
9 -6 -3 -2 2 8 10 15 12 16 16 5 16 -12 0 -12 2 1 10 8 5 11 10 6 10 -6 0 -1
7 10 15 13 10 14 13 3 10 -10 -4 -16 0 -16 9 0 8 4 13 9 10 5 -4 7 12 3 36 -5
33 -3 40 7 34 7 -4 4 3 -7 16 -11 13 -14 20 -6 15 11 -6 13 -2 9 18 -3 17 0
28 10 32 12 4 12 8 1 22 -10 12 -10 14 -1 9 6 -4 12 -2 12 3 0 6 -4 11 -8 11
-4 0 -8 9 -8 20 0 11 4 20 9 20 5 0 3 8 -4 17 -10 11 -10 14 -1 9 6 -4 12 -2
12 3 0 6 -6 11 -12 11 -9 0 -8 4 2 10 12 8 12 10 1 10 -11 0 -11 3 -1 15 10
12 10 15 0 15 -10 0 -10 3 0 15 10 12 10 15 -1 15 -10 0 -11 2 -2 8 7 5 9 13
3 21 -4 8 -4 24 0 37 6 14 5 26 0 29 -6 4 -10 11 -10 16 0 6 4 8 8 5 5 -3 9 1
9 9 0 8 -5 15 -10 15 -5 0 -3 8 4 17 12 15 12 16 -1 8 -13 -8 -13 -7 -1 8 11
14 11 17 0 17 -11 0 -11 2 1 10 11 7 11 10 2 10 -7 0 -10 5 -7 10 4 6 0 24 -9
40 -8 17 -10 28 -5 24 7 -4 8 9 4 36 -5 33 -3 40 7 34 7 -4 4 3 -7 16 -11 13
-14 20 -7 16 8 -5 12 0 12 16 0 18 -2 20 -10 8 -5 -8 -10 -10 -10 -4 0 6 3 14
7 18 15 14 10 37 -10 51 -21 14 -21 15 -2 15 17 0 17 2 5 10 -11 7 -11 10 -2
10 9 0 10 5 2 19 -7 14 -6 21 3 24 9 4 9 6 -1 6 -7 1 -10 6 -7 11 3 6 1 10 -5
10 -6 0 -8 5 -5 10 3 6 0 10 -7 10 -10 0 -10 2 0 9 19 12 19 14 0 42 -10 16
-13 31 -8 39 5 8 2 24 -8 39 -16 25 -16 25 1 12 15 -12 17 -12 11 3 -3 9 -10
16 -15 16 -5 0 -9 5 -9 11 0 6 6 7 13 2 6 -4 4 6 -7 21 -10 16 -14 26 -8 22
12 -7 10 13 -3 34 -5 8 -8 23 -7 33 2 9 -2 17 -9 17 -8 0 -7 5 2 17 10 11 10
14 2 9 -9 -5 -13 0 -13 13 0 12 -6 21 -12 21 -9 0 -8 4 2 10 10 6 11 10 3 10
-7 0 -12 3 -12 8 4 26 -3 62 -11 57 -5 -3 -10 -2 -10 4 0 5 5 13 10 16 6 4 4
12 -5 22 -10 9 -13 23 -9 35 4 14 2 18 -5 14 -10 -6 -16 13 -12 37 0 4 -3 7
-8 7 -4 0 -8 10 -7 23 1 14 -4 21 -13 19 -12 -3 -12 -1 0 14 9 12 9 15 2 10
-7 -4 -13 -3 -13 3 0 5 5 13 10 16 7 4 2 14 -11 26 -15 13 -17 19 -8 19 8 0
10 3 4 8 -5 4 -16 18 -23 31 -11 19 -11 22 0 16 10 -6 11 -5 1 6 -7 7 -13 21
-13 31 0 10 -4 18 -10 18 -5 0 -10 9 -10 20 0 11 -4 20 -9 20 -6 0 -8 9 -6 19
2 11 -3 22 -11 25 -9 3 -12 11 -8 17 3 6 1 15 -6 19 -18 11 -25 54 -8 45 7 -4
2 2 -11 13 -13 11 -21 24 -17 31 4 6 0 11 -11 12 -10 0 -13 3 -6 6 10 3 9 8
-3 20 -8 9 -13 22 -10 30 3 8 1 11 -4 8 -6 -3 -10 1 -10 10 0 8 -7 18 -16 22
-13 5 -13 7 -2 14 10 7 11 9 0 9 -8 0 -10 5 -6 12 5 8 2 9 -11 4 -15 -5 -16
-4 -5 9 10 12 9 15 -6 16 -11 0 -14 3 -7 6 9 3 5 13 -12 31 -13 14 -22 30 -19
34 3 5 0 15 -6 23 -7 8 -9 15 -5 15 4 0 -4 9 -19 21 -14 11 -24 24 -21 29 3 5
0 12 -6 15 -5 4 -8 13 -5 21 3 8 -1 17 -9 20 -8 4 -12 10 -9 15 3 5 -1 9 -9 9
-8 0 -14 8 -13 18 0 10 -6 16 -16 16 -10 -1 -17 1 -16 5 4 34 -4 61 -19 61 -9
0 -13 3 -10 6 4 4 -1 14 -11 23 -9 9 -23 28 -31 44 -8 15 -18 27 -23 27 -4 0
-8 10 -8 23 0 18 -2 19 -10 7 -8 -13 -10 -13 -11 3 -3 37 -5 42 -17 40 -7 -2
-11 2 -9 9 1 7 -5 12 -13 13 -9 0 -15 9 -14 23 1 13 -4 22 -13 22 -7 0 -19 12
-26 28 -15 33 -33 53 -41 45 -3 -4 -6 -1 -6 5 0 7 -14 26 -30 44 -17 17 -28
38 -26 45 3 7 2 12 -2 11 -15 -3 -42 15 -42 29 0 8 -4 11 -10 8 -6 -3 -10 1
-10 10 0 9 -4 14 -9 11 -11 -7 -23 22 -14 36 3 6 2 9 -3 6 -12 -6 -44 28 -36
38 4 4 2 4 -4 1 -6 -3 -30 16 -54 43 -24 27 -47 47 -52 44 -8 -5 -12 11 -8 31
1 6 -1 7 -5 3 -4 -3 -27 15 -52 40 -26 26 -44 42 -40 36 3 -6 0 -11 -8 -11 -8
0 -12 4 -9 9 3 4 0 8 -6 8 -6 0 -9 4 -6 9 3 4 -6 13 -20 20 -17 7 -24 17 -20
27 3 8 2 13 -3 9 -5 -3 -16 1 -24 9 -8 8 -17 12 -21 9 -3 -4 -6 -1 -6 6 0 7
-4 9 -10 6 -5 -3 -10 1 -10 9 0 9 -4 16 -9 16 -5 0 -13 9 -16 20 -5 16 -10 18
-25 10 -16 -8 -18 -7 -14 4 3 8 -2 17 -14 20 -11 4 -22 16 -25 28 -4 15 -11
19 -27 15 -12 -3 -20 -3 -17 0 6 5 -29 43 -40 43 -3 0 -15 8 -26 18 -12 10
-17 11 -12 3 5 -10 4 -12 -3 -7 -7 4 -12 14 -12 23 0 9 -3 14 -6 10 -3 -3 -18
5 -32 18 -14 13 -29 22 -34 19 -4 -3 -8 0 -8 5 0 6 -7 11 -15 11 -9 0 -18 6
-21 14 -3 8 -19 19 -35 25 -16 5 -29 15 -29 22 0 7 -3 9 -7 6 -3 -4 -12 1 -20
11 -10 11 -12 12 -8 2 5 -13 4 -13 -7 0 -7 9 -28 22 -45 29 -18 7 -30 17 -27
22 3 5 -1 9 -9 9 -20 0 -77 30 -77 40 0 4 -11 7 -25 5 -14 -1 -23 0 -21 3 3 2
0 10 -7 16 -16 16 -50 29 -42 16 3 -6 -1 -7 -9 -4 -9 3 -13 10 -10 15 4 8 -9
11 -32 8 -4 0 -10 4 -13 9 -3 6 -13 12 -21 14 -22 5 -39 22 -32 33 3 6 -3 3
-13 -5 -15 -12 -17 -12 -10 -1 6 11 4 13 -8 8 -10 -3 -17 -2 -17 3 0 5 -6 7
-14 4 -8 -3 -26 7 -40 21 -15 15 -33 24 -40 22 -8 -3 -23 3 -34 13 -19 18 -21
18 -25 2 -4 -15 -5 -15 -6 2 -1 12 -6 16 -16 13 -8 -4 -17 -2 -20 4 -4 5 -11
7 -16 4 -5 -4 -9 -3 -9 2 0 4 -11 13 -25 20 -15 7 -25 7 -25 1 0 -5 -7 -2 -16
6 -8 9 -20 14 -25 11 -5 -4 -9 -1 -9 4 0 6 -5 11 -11 11 -5 0 -7 -5 -4 -11 8
-13 -37 12 -47 26 -4 6 -8 6 -8 2 0 -4 -10 -2 -22 4 -20 10 -22 10 -13 -2 6
-8 2 -6 -8 4 -10 11 -20 17 -24 13 -4 -3 -17 1 -31 10 -13 9 -21 11 -18 5 11
-17 -10 -13 -24 4 -7 8 -18 15 -24 15 -6 0 -4 -5 4 -10 9 -6 10 -10 3 -10 -6
0 -19 7 -28 16 -8 9 -22 13 -30 10 -8 -3 -17 -1 -20 4 -3 5 -13 6 -22 3 -11
-4 -14 -3 -9 5 5 8 -1 12 -16 12 -41 0 -58 3 -58 12 0 5 -9 4 -20 -2 -15 -8
-20 -8 -20 1 0 6 -6 9 -14 6 -8 -3 -17 1 -20 8 -3 8 -12 12 -21 9 -8 -3 -12
-10 -9 -15 3 -5 -2 -6 -10 -3 -9 3 -16 10 -16 16 0 5 -4 6 -10 3 -5 -3 -10 -1
-10 4 0 6 -5 11 -11 11 -5 0 -7 -6 -3 -12 4 -7 -3 -4 -15 6 -20 18 -21 18 -15
2 7 -17 6 -17 -17 -3 -13 9 -44 16 -68 15 -26 0 -47 5 -52 13 -7 12 -9 11 -9
-1 0 -13 -2 -13 -9 -1 -8 12 -12 12 -24 2 -11 -9 -17 -9 -22 0 -6 8 -10 7 -16
-2 -7 -11 -9 -11 -9 1 0 13 -1 13 -10 0 -8 -12 -10 -12 -16 4 -5 14 -9 15 -15
4 -7 -10 -9 -8 -9 6 0 14 -3 16 -13 8 -8 -7 -18 -7 -27 -2 -9 5 -19 5 -27 -2
-9 -7 -13 -7 -13 2 0 9 -4 9 -13 2 -8 -7 -18 -7 -27 -2 -9 5 -19 5 -26 -1 -8
-7 -14 -6 -19 1 -5 8 -11 7 -23 -2 -13 -11 -14 -11 -7 1 6 11 2 13 -19 9 -14
-3 -29 -2 -32 3 -2 4 -11 6 -19 2 -9 -3 -15 1 -15 8 0 11 -2 11 -10 -1 -8 -13
-13 -13 -31 -2 -11 8 -18 9 -15 4 11 -18 -18 -20 -38 -3 -11 9 -16 10 -12 4 5
-9 0 -13 -13 -13 -12 0 -21 6 -21 13 0 9 -3 8 -9 -2 -6 -8 -16 -11 -31 -6 -17
6 -21 4 -14 -6 6 -11 5 -12 -8 -2 -8 7 -18 10 -21 6 -4 -3 -14 0 -24 8 -14 12
-16 12 -8 0z m1670 -329 c-3 -3 -11 0 -18 7 -9 10 -8 11 6 5 10 -3 15 -9 12
-12z m-3322 -137 c-3 -9 -8 -14 -10 -11 -3 3 -2 9 2 15 9 16 15 13 8 -4z"/>
<path d="M6594 1384 c-18 -14 -18 -15 4 -4 12 6 22 13 22 15 0 8 -5 6 -26 -11z"/>
</g>
</svg>
